<svg width="64" height="64" viewBox="0 0 64 64" fill="none" xmlns="http://www.w3.org/2000/svg">
<path d="M31.9904 8.66242C32.0548 9.29553 31.8651 9.92828 31.463 10.4215C31.061 10.9148 30.4795 11.2282 29.8464 11.2928C25.9336 11.6998 22.2161 13.207 19.1246 15.6399C16.0332 18.0728 13.6943 21.3318 12.379 25.0393C11.0637 28.7469 10.8257 32.7512 11.6927 36.5885C12.5596 40.4257 14.496 43.9388 17.2776 46.7207C20.0591 49.5026 23.5719 51.4395 27.409 52.307C31.2461 53.1745 35.2505 52.9371 38.9582 51.6223C42.666 50.3075 45.9253 47.9691 48.3586 44.878C50.792 41.7869 52.2997 38.0696 52.7072 34.1568C52.7348 33.8398 52.8252 33.5314 52.9732 33.2496C53.1211 32.9678 53.3236 32.7182 53.5689 32.5154C53.8142 32.3126 54.0973 32.1606 54.4019 32.0683C54.7065 31.976 55.0264 31.9451 55.343 31.9776C55.6596 32.0101 55.9666 32.1052 56.2461 32.2574C56.5256 32.4096 56.772 32.6159 56.971 32.8643C57.17 33.1127 57.3177 33.3981 57.4053 33.7041C57.493 34.01 57.5189 34.3304 57.4816 34.6464C56.9817 39.4623 55.1273 44.038 52.1334 47.8431C49.1394 51.6483 45.1285 54.5271 40.5654 56.146C36.0023 57.7649 31.0738 58.0576 26.3512 56.9901C21.6285 55.9227 17.305 53.5388 13.8818 50.1148C10.4585 46.6907 8.0756 42.3667 7.00922 37.6438C5.94284 32.9209 6.23665 27.9925 7.85659 23.4298C9.47652 18.867 12.3563 14.8567 16.1621 11.8637C19.9679 8.87057 24.544 7.01723 29.36 6.51842C29.9931 6.45404 30.6259 6.64374 31.1191 7.04579C31.6124 7.44785 31.9258 8.02935 31.9904 8.66242V8.66242ZM35.2544 8.45122C35.3277 8.14431 35.4608 7.85486 35.646 7.59944C35.8313 7.34401 36.0651 7.12763 36.3341 6.96267C36.6031 6.79771 36.902 6.68741 37.2136 6.63809C37.5253 6.58877 37.8436 6.60139 38.1504 6.67522C39.36 6.96322 40.5408 7.34083 41.68 7.79523C42.255 8.04187 42.711 8.50333 42.9508 9.08127C43.1905 9.65921 43.1951 10.3079 42.9635 10.8892C42.7319 11.4705 42.2825 11.9383 41.711 12.193C41.1395 12.4477 40.4911 12.4692 39.904 12.2528C38.9688 11.8824 38.0086 11.5787 37.0304 11.344C36.4118 11.1953 35.8776 10.807 35.5452 10.2646C35.2128 9.72214 35.1093 9.06991 35.2576 8.45122H35.2544ZM56.2048 22.3168C55.9693 21.7253 55.5085 21.2515 54.9236 20.9998C54.3388 20.748 53.678 20.7389 53.0864 20.9744C52.4949 21.2099 52.0211 21.6708 51.7694 22.2556C51.5176 22.8404 51.5085 23.5013 51.744 24.0928C52.112 25.0208 52.4192 25.9808 52.656 26.9664C52.8045 27.5855 53.1929 28.1203 53.7357 28.4531C54.0045 28.6178 54.3031 28.7281 54.6145 28.7774C54.9258 28.8268 55.2439 28.8144 55.5504 28.7408C55.857 28.6673 56.146 28.5341 56.4011 28.3488C56.6562 28.1636 56.8723 27.9299 57.0371 27.6611C57.2018 27.3923 57.3121 27.0938 57.3614 26.7824C57.4108 26.471 57.3984 26.153 57.3248 25.8464C57.0366 24.6445 56.6623 23.465 56.2048 22.3168V22.3168ZM45.728 12.5632C46.146 12.0834 46.7375 11.7892 47.3724 11.7454C48.0073 11.7016 48.6336 11.9117 49.1136 12.3296C50.096 13.184 51.0144 14.112 51.8592 15.104C52.2717 15.5891 52.4746 16.2181 52.4233 16.8527C52.372 17.4873 52.0706 18.0756 51.5856 18.488C51.1006 18.9005 50.4716 19.1034 49.837 19.0521C49.2023 19.0008 48.6141 18.6995 48.2016 18.2144C47.5126 17.4043 46.7639 16.647 45.9616 15.9488C45.4818 15.5308 45.1876 14.9393 45.1438 14.3044C45.1 13.6695 45.3101 13.0432 45.728 12.5632V12.5632ZM32 18.4C32 17.7635 31.7472 17.1531 31.2971 16.703C30.847 16.2529 30.2365 16 29.6 16C28.9635 16 28.353 16.2529 27.903 16.703C27.4529 17.1531 27.2 17.7635 27.2 18.4V34.4C27.2 35.728 28.2752 36.8 29.6 36.8H39.2C39.8365 36.8 40.447 36.5472 40.8971 36.0971C41.3472 35.647 41.6 35.0365 41.6 34.4C41.6 33.7635 41.3472 33.1531 40.8971 32.703C40.447 32.2529 39.8365 32 39.2 32H32V18.4Z" fill="black"/>
</svg>
