<svg width="24" height="24" viewBox="0 0 64 64" fill="none" xmlns="http://www.w3.org/2000/svg">
<path d="M61.9 32C61.9 31.3 62.1 21.1 56.1 14.5C55.8 13.9 54.6 11.5 50.5 8.6C47.8 6.5 45 5 44.7 4.8C44.4 4.6 39.4 2 33.4 2C32.9 2 32.5 2 32 2.1C27.4 2 23.2 3.2 20.1 4.6C16.9 6 14.8 7.4 14.6 7.6C11.2 9.5 4.7 17.1 4.2 21.2C2.1 23.8 0.400003 35.7 4.2 42.9C6.9 52.9 16.9 57.9 17.7 58.3C18.2 58.6 23.6 62 30.3 62H31.2C31.8 62.1 32.3 62.1 32.9 62.1C40.1 62.1 50.9 57 53.1 53C59.3 48.4 62.5 36.8 61.9 32M17.8 47.1C14.9 42.5 13.3 36.4 12.9 35C13.8 33.6 18.3 27 20.8 25C22.2 25.3 28.3 26.4 34 27.4C34.7 29.3 37.9 37.4 38.8 40.6C37.8 41.8 33.9 46.3 30.1 49.8C26 49.9 19.1 47.5 17.8 47.1M53.8 14.6C53.8 15 53.7 16.6 52.9 18.5C51.4 17.7 47.6 16.1 42.3 15.8C41.5 14.6 38.5 10.5 33.8 7.7C34.4 6.4 35.3 4.9 35.9 4.4C36.1 4.4 36.3 4.3 36.7 4.3C39.2 4.3 43.6 6 44 6.1C44.4 6.3 52.3 10.5 53.8 14.6ZM11.8 34C8.4 33.4 6.3 32.4 5.7 32C4.4 27.4 5.5 22.4 5.6 21.7C6.9 19.5 10.4 13.7 12.8 12.6C15.2 12.1 18.3 12.7 19.5 13C19.4 14.6 19.2 19.1 19.8 23.9C17.2 26.1 12.9 32.4 11.8 34ZM31.7 3.5C32.5 3.6 33.6 3.7 34.4 4C33.6 5 32.8 6.5 32.5 7.3C30.9 7.6 25 8.7 20.3 11.7C19.4 11.5 16.5 10.8 13.8 11C14.5 9.7 15.5 8.8 15.6 8.7C15.9 8.4 23 3.4 31.7 3.5M50.8 41.6C49.6 41.6 45.1 41.3 40.2 40.1C39.3 36.8 36.1 28.7 35.4 26.8C38.5 22.4 41.5 18.3 42.3 17.1C48 17.5 52 19.6 52.8 20C56.1 25.3 56.8 30.7 56.9 31.6C55.1 37.1 51.7 40.8 50.8 41.6ZM3.7 28.5C3.8 29.8 4 31.1 4.4 32.4C4.1 33.3 3.8 34.2 3.7 35.1C3.4 32.8 3.4 30.5 3.7 28.5ZM18.5 57L18.1 57.6L18.5 57C16 55.8 14.1 53 13.3 51.9C14.8 50.4 16.7 49 17.4 48.5C19 49.1 25.7 51.3 30 51.3C30.7 52.3 33.1 55.3 36 57.7C34.2 59.5 31.6 60.3 31.1 60.5C24.3 60.7 18.5 57 18.5 57M34.8 60.4C35.7 59.9 36.7 59.2 37.5 58.3C38.8 58.1 44.4 57.2 49.4 53.5C49.7 53.5 50.3 53.6 50.9 53.6C47.8 56.5 40.4 59.8 34.8 60.4ZM50.2 52C52 47.3 51.9 43.7 51.8 42.6C52.8 41.6 56.2 38 58.1 32.5C59.1 32.7 59.8 32.9 60.1 33.1C60.2 33.5 60.4 34.4 60.3 35.8C59.5 40.8 56.9 48.4 52.2 51.7C51.7 52 50.9 52.1 50.2 52Z" fill="black"/>
</svg>
