<svg width="64" height="64" viewBox="0 0 64 64" fill="none" xmlns="http://www.w3.org/2000/svg">
<path d="M19.7333 18.6667H12.2667C11.8423 18.6667 11.4353 18.8353 11.1353 19.1353C10.8352 19.4354 10.6667 19.8423 10.6667 20.2667V43.7334C10.6667 43.9435 10.708 44.1515 10.7884 44.3456C10.8689 44.5398 10.9867 44.7162 11.1353 44.8647C11.2839 45.0133 11.4602 45.1312 11.6544 45.2116C11.8485 45.292 12.0565 45.3334 12.2667 45.3334H19.7333C19.9434 45.3334 20.1515 45.292 20.3456 45.2116C20.5397 45.1312 20.7161 45.0133 20.8647 44.8647C21.0133 44.7162 21.1311 44.5398 21.2115 44.3456C21.2919 44.1515 21.3333 43.9435 21.3333 43.7334V20.2667C21.3333 19.8423 21.1648 19.4354 20.8647 19.1353C20.5646 18.8353 20.1577 18.6667 19.7333 18.6667V18.6667ZM51.7333 18.6667H44.2667C43.8423 18.6667 43.4353 18.8353 43.1353 19.1353C42.8352 19.4354 42.6667 19.8423 42.6667 20.2667V43.7334C42.6667 43.9435 42.708 44.1515 42.7884 44.3456C42.8689 44.5398 42.9867 44.7162 43.1353 44.8647C43.2839 45.0133 43.4602 45.1312 43.6544 45.2116C43.8485 45.292 44.0565 45.3334 44.2667 45.3334H51.7333C51.9434 45.3334 52.1515 45.292 52.3456 45.2116C52.5397 45.1312 52.7161 45.0133 52.8647 44.8647C53.0133 44.7162 53.1311 44.5398 53.2115 44.3456C53.2919 44.1515 53.3333 43.9435 53.3333 43.7334V20.2667C53.3333 19.8423 53.1648 19.4354 52.8647 19.1353C52.5646 18.8353 52.1577 18.6667 51.7333 18.6667V18.6667Z" stroke="black" stroke-width="4" stroke-linecap="round" stroke-linejoin="round"/>
<path d="M21.3333 32H42.6667M2.66666 38.4V25.6C2.66666 25.1757 2.83523 24.7687 3.13529 24.4686C3.43534 24.1686 3.84231 24 4.26666 24H9.06666C9.491 24 9.89797 24.1686 10.198 24.4686C10.4981 24.7687 10.6667 25.1757 10.6667 25.6V38.4C10.6667 38.8243 10.4981 39.2313 10.198 39.5314C9.89797 39.8314 9.491 40 9.06666 40H4.26666C3.84231 40 3.43534 39.8314 3.13529 39.5314C2.83523 39.2313 2.66666 38.8243 2.66666 38.4V38.4ZM61.3333 38.4V25.6C61.3333 25.1757 61.1648 24.7687 60.8647 24.4686C60.5646 24.1686 60.1577 24 59.7333 24H54.9333C54.509 24 54.102 24.1686 53.802 24.4686C53.5019 24.7687 53.3333 25.1757 53.3333 25.6V38.4C53.3333 38.8243 53.5019 39.2313 53.802 39.5314C54.102 39.8314 54.509 40 54.9333 40H59.7333C60.1577 40 60.5646 39.8314 60.8647 39.5314C61.1648 39.2313 61.3333 38.8243 61.3333 38.4V38.4Z" stroke="black" stroke-width="4" stroke-linecap="round" stroke-linejoin="round"/>
</svg>
