<svg width="64" height="64" viewBox="0 0 64 64" fill="none" xmlns="http://www.w3.org/2000/svg">
<path fill-rule="evenodd" clip-rule="evenodd" d="M32 56C45.2547 56 56 45.2546 56 32C56 18.7453 45.2547 7.99998 32 7.99998C18.7453 7.99998 8.00001 18.7453 8.00001 32C8.00001 45.2546 18.7453 56 32 56ZM32 58.6666C46.728 58.6666 58.6667 46.728 58.6667 32C58.6667 17.272 46.728 5.33331 32 5.33331C17.272 5.33331 5.33334 17.272 5.33334 32C5.33334 46.728 17.272 58.6666 32 58.6666Z" fill="black"/>
<path d="M16 47.5067C16 46.1293 17.0293 44.9653 18.4 44.8133C28.6867 43.6747 35.36 43.7773 45.624 44.8387C46.1365 44.8925 46.6223 45.0944 47.022 45.4198C47.4217 45.7451 47.718 46.1799 47.8746 46.6708C48.0313 47.1618 48.0416 47.6878 47.9043 48.1845C47.767 48.6812 47.488 49.1272 47.1013 49.468C34.988 60.0267 28.0653 59.8813 16.8533 49.4787C16.3067 48.972 16 48.252 16 47.508V47.5067Z" fill="black"/>
<path fill-rule="evenodd" clip-rule="evenodd" d="M45.4867 46.164C35.304 45.1106 28.7267 45.012 18.5453 46.1386C18.2102 46.1777 17.9012 46.339 17.6776 46.5916C17.454 46.8443 17.3314 47.1705 17.3333 47.508C17.3333 47.8893 17.492 48.2506 17.76 48.5013C23.3173 53.656 27.528 55.9853 31.644 56C35.7747 56.0146 40.212 53.704 46.2253 48.464C46.4164 48.2939 46.5539 48.072 46.6212 47.8253C46.6885 47.5786 46.6827 47.3176 46.6044 47.0741C46.5262 46.8306 46.3789 46.6151 46.1805 46.4538C45.982 46.2924 45.741 46.1922 45.4867 46.1653V46.164ZM18.2533 43.488C28.648 42.3373 35.4187 42.4413 45.7627 43.5119C46.5337 43.5924 47.2646 43.896 47.8658 44.3855C48.467 44.8749 48.9125 45.5291 49.1476 46.2678C49.3828 47.0065 49.3975 47.7978 49.1898 48.5447C48.9822 49.2917 48.5613 49.9619 47.9787 50.4733C41.8787 55.7906 36.7987 58.6866 31.636 58.6666C26.4587 58.648 21.6027 55.7026 15.948 50.456C15.5431 50.0788 15.2204 49.6223 14.9999 49.1148C14.7795 48.6074 14.666 48.0599 14.6667 47.5066C14.6647 46.5125 15.0296 45.5527 15.6914 44.8109C16.3532 44.0691 17.2654 43.5976 18.2533 43.4866V43.488Z" fill="black"/>
<path d="M42.6667 26.6667C42.6667 29.4956 41.5429 32.2088 39.5425 34.2091C37.5421 36.2095 34.829 37.3333 32 37.3333C29.171 37.3333 26.4579 36.2095 24.4575 34.2091C22.4571 32.2088 21.3333 29.4956 21.3333 26.6667C21.3333 23.8377 22.4571 21.1246 24.4575 19.1242C26.4579 17.1238 29.171 16 32 16C34.829 16 37.5421 17.1238 39.5425 19.1242C41.5429 21.1246 42.6667 23.8377 42.6667 26.6667V26.6667Z" fill="black"/>
<path fill-rule="evenodd" clip-rule="evenodd" d="M32 34.6667C34.1217 34.6667 36.1566 33.8238 37.6569 32.3235C39.1572 30.8232 40 28.7884 40 26.6667C40 24.5449 39.1572 22.5101 37.6569 21.0098C36.1566 19.5095 34.1217 18.6667 32 18.6667C29.8783 18.6667 27.8434 19.5095 26.3432 21.0098C24.8429 22.5101 24 24.5449 24 26.6667C24 28.7884 24.8429 30.8232 26.3432 32.3235C27.8434 33.8238 29.8783 34.6667 32 34.6667V34.6667ZM32 37.3333C34.829 37.3333 37.5421 36.2095 39.5425 34.2091C41.5429 32.2088 42.6667 29.4956 42.6667 26.6667C42.6667 23.8377 41.5429 21.1246 39.5425 19.1242C37.5421 17.1238 34.829 16 32 16C29.171 16 26.4579 17.1238 24.4575 19.1242C22.4571 21.1246 21.3333 23.8377 21.3333 26.6667C21.3333 29.4956 22.4571 32.2088 24.4575 34.2091C26.4579 36.2095 29.171 37.3333 32 37.3333V37.3333Z" fill="black"/>
</svg>
