<svg width="40" height="40" viewBox="0 0 40 40" fill="none" xmlns="http://www.w3.org/2000/svg">
<path d="M11.6667 16.6667H28.3333V23.3334H11.6667V16.6667Z" fill="#003865"/>
<path d="M20 3.33337C10.81 3.33337 3.33334 10.81 3.33334 20C3.33334 29.19 10.81 36.6667 20 36.6667C29.19 36.6667 36.6667 29.19 36.6667 20C36.6667 10.81 29.19 3.33337 20 3.33337ZM20 33.3334C12.6483 33.3334 6.66668 27.3517 6.66668 20C6.66668 12.6484 12.6483 6.66671 20 6.66671C27.3517 6.66671 33.3333 12.6484 33.3333 20C33.3333 27.3517 27.3517 33.3334 20 33.3334Z" fill="#003865"/>
</svg>
