<svg width="451" height="241" viewBox="0 0 451 241" fill="none" xmlns="http://www.w3.org/2000/svg">
<path d="M72.6147 164.192V218H55.8187V191.172L47.5347 218H33.0947L24.8107 191.172V218H7.93867V164.192H28.6107L40.4667 196.492L52.0187 164.192H72.6147ZM77.9477 196.568C77.9477 192.059 78.7077 188.157 80.2277 184.864C81.7984 181.52 83.9264 178.987 86.6117 177.264C89.2971 175.491 92.3117 174.604 95.6557 174.604C98.4424 174.604 100.849 175.187 102.876 176.352C104.902 177.467 106.448 179.012 107.512 180.988V175.136H124.308V218H107.512V212.148C106.448 214.124 104.902 215.695 102.876 216.86C100.849 217.975 98.4424 218.532 95.6557 218.532C92.3117 218.532 89.2971 217.671 86.6117 215.948C83.9264 214.175 81.7984 211.641 80.2277 208.348C78.7077 205.004 77.9477 201.077 77.9477 196.568ZM107.512 196.568C107.512 194.288 106.929 192.515 105.764 191.248C104.598 189.981 103.104 189.348 101.28 189.348C99.4557 189.348 97.9611 189.981 96.7957 191.248C95.6304 192.515 95.0477 194.288 95.0477 196.568C95.0477 198.848 95.6304 200.621 96.7957 201.888C97.9611 203.155 99.4557 203.788 101.28 203.788C103.104 203.788 104.598 203.155 105.764 201.888C106.929 200.621 107.512 198.848 107.512 196.568ZM150.96 218.532C146.907 218.532 143.309 217.873 140.168 216.556C137.077 215.239 134.62 213.415 132.796 211.084C130.972 208.753 129.933 206.119 129.68 203.18H145.868C146.071 204.447 146.603 205.384 147.464 205.992C148.376 206.6 149.516 206.904 150.884 206.904C151.745 206.904 152.429 206.727 152.936 206.372C153.443 205.967 153.696 205.485 153.696 204.928C153.696 203.965 153.164 203.281 152.1 202.876C151.036 202.471 149.237 202.015 146.704 201.508C143.613 200.9 141.055 200.241 139.028 199.532C137.052 198.823 135.304 197.607 133.784 195.884C132.315 194.161 131.58 191.78 131.58 188.74C131.58 186.105 132.264 183.724 133.632 181.596C135.051 179.417 137.128 177.72 139.864 176.504C142.6 175.237 145.919 174.604 149.82 174.604C155.596 174.604 160.105 176.023 163.348 178.86C166.641 181.697 168.617 185.396 169.276 189.956H154.304C154.051 188.791 153.519 187.904 152.708 187.296C151.897 186.637 150.808 186.308 149.44 186.308C148.579 186.308 147.92 186.485 147.464 186.84C147.008 187.144 146.78 187.625 146.78 188.284C146.78 189.145 147.312 189.804 148.376 190.26C149.44 190.665 151.137 191.096 153.468 191.552C156.559 192.16 159.168 192.844 161.296 193.604C163.424 194.364 165.273 195.681 166.844 197.556C168.415 199.38 169.2 201.913 169.2 205.156C169.2 207.689 168.465 209.969 166.996 211.996C165.527 214.023 163.399 215.619 160.612 216.784C157.876 217.949 154.659 218.532 150.96 218.532ZM233.124 174.832C238.596 174.832 242.826 176.479 245.816 179.772C248.856 183.065 250.376 187.524 250.376 193.148V218H233.58V195.276C233.58 193.452 233.022 192.033 231.908 191.02C230.844 189.956 229.4 189.424 227.576 189.424C225.701 189.424 224.232 189.956 223.168 191.02C222.104 192.033 221.572 193.452 221.572 195.276V218H204.776V195.276C204.776 193.452 204.218 192.033 203.104 191.02C202.04 189.956 200.596 189.424 198.772 189.424C196.897 189.424 195.428 189.956 194.364 191.02C193.3 192.033 192.768 193.452 192.768 195.276V218H175.896V175.136H192.768V180.912C193.984 179.088 195.63 177.619 197.708 176.504C199.836 175.389 202.318 174.832 205.156 174.832C208.246 174.832 210.982 175.516 213.364 176.884C215.745 178.201 217.645 180.076 219.064 182.508C220.634 180.279 222.636 178.455 225.068 177.036C227.5 175.567 230.185 174.832 233.124 174.832ZM255.405 196.568C255.405 192.059 256.165 188.157 257.685 184.864C259.255 181.52 261.383 178.987 264.069 177.264C266.754 175.491 269.769 174.604 273.113 174.604C275.899 174.604 278.306 175.187 280.333 176.352C282.359 177.467 283.905 179.012 284.969 180.988V175.136H301.765V218H284.969V212.148C283.905 214.124 282.359 215.695 280.333 216.86C278.306 217.975 275.899 218.532 273.113 218.532C269.769 218.532 266.754 217.671 264.069 215.948C261.383 214.175 259.255 211.641 257.685 208.348C256.165 205.004 255.405 201.077 255.405 196.568ZM284.969 196.568C284.969 194.288 284.386 192.515 283.221 191.248C282.055 189.981 280.561 189.348 278.737 189.348C276.913 189.348 275.418 189.981 274.253 191.248C273.087 192.515 272.505 194.288 272.505 196.568C272.505 198.848 273.087 200.621 274.253 201.888C275.418 203.155 276.913 203.788 278.737 203.788C280.561 203.788 282.055 203.155 283.221 201.888C284.386 200.621 284.969 198.848 284.969 196.568ZM328.417 218.532C324.364 218.532 320.766 217.873 317.625 216.556C314.534 215.239 312.077 213.415 310.253 211.084C308.429 208.753 307.39 206.119 307.137 203.18H323.325C323.528 204.447 324.06 205.384 324.921 205.992C325.833 206.6 326.973 206.904 328.341 206.904C329.202 206.904 329.886 206.727 330.393 206.372C330.9 205.967 331.153 205.485 331.153 204.928C331.153 203.965 330.621 203.281 329.557 202.876C328.493 202.471 326.694 202.015 324.161 201.508C321.07 200.9 318.512 200.241 316.485 199.532C314.509 198.823 312.761 197.607 311.241 195.884C309.772 194.161 309.037 191.78 309.037 188.74C309.037 186.105 309.721 183.724 311.089 181.596C312.508 179.417 314.585 177.72 317.321 176.504C320.057 175.237 323.376 174.604 327.277 174.604C333.053 174.604 337.562 176.023 340.805 178.86C344.098 181.697 346.074 185.396 346.733 189.956H331.761C331.508 188.791 330.976 187.904 330.165 187.296C329.354 186.637 328.265 186.308 326.897 186.308C326.036 186.308 325.377 186.485 324.921 186.84C324.465 187.144 324.237 187.625 324.237 188.284C324.237 189.145 324.769 189.804 325.833 190.26C326.897 190.665 328.594 191.096 330.925 191.552C334.016 192.16 336.625 192.844 338.753 193.604C340.881 194.364 342.73 195.681 344.301 197.556C345.872 199.38 346.657 201.913 346.657 205.156C346.657 207.689 345.922 209.969 344.453 211.996C342.984 214.023 340.856 215.619 338.069 216.784C335.333 217.949 332.116 218.532 328.417 218.532ZM391.353 164.192V177.568H370.225V185.016H385.425V197.708H370.225V218H353.353V164.192H391.353ZM405.58 171.716C402.641 171.716 400.285 170.931 398.512 169.36C396.738 167.789 395.852 165.813 395.852 163.432C395.852 161 396.738 158.999 398.512 157.428C400.285 155.807 402.641 154.996 405.58 154.996C408.468 154.996 410.798 155.807 412.572 157.428C414.345 158.999 415.232 161 415.232 163.432C415.232 165.813 414.345 167.789 412.572 169.36C410.798 170.931 408.468 171.716 405.58 171.716ZM413.94 175.136V218H397.068V175.136H413.94ZM448.236 203.636V218H441.852C430.097 218 424.22 212.148 424.22 200.444V189.196H418.9V175.136H424.22V164.8H441.092V175.136H448.084V189.196H441.092V200.748C441.092 201.761 441.32 202.496 441.776 202.952C442.282 203.408 443.093 203.636 444.208 203.636H448.236Z" fill="#EF5B0C"/>
<path opacity="0.7" d="M56.1308 23.2593V119.675C56.1308 121.041 55.7412 122.213 54.9514 123.164C54.1721 124.123 53.0242 124.603 51.5182 124.603C50.4546 124.603 49.4225 124.382 48.4115 123.948L4.68634 104.796C3.36995 104.252 2.25366 103.329 1.34799 102.046C0.452841 100.753 0 99.4797 0 98.2244V4.52265C0 3.42429 0.315931 2.49208 0.937267 1.726C1.56913 0.959921 2.47481 0.572266 3.66482 0.572266C4.53891 0.572266 5.91849 0.987609 7.80356 1.80907L55.857 22.8532C56.0361 23.0101 56.1308 23.1486 56.1308 23.2593V23.2593Z" fill="#D4F6CC"/>
<path opacity="0.3" d="M62.1547 31.5662L112.367 102.738L62.1547 80.8814V31.5662ZM168.498 33.0429V119.675C168.498 121.041 168.056 122.157 167.181 123.007C166.307 123.856 165.117 124.28 163.611 124.28C162.105 124.28 160.631 123.92 159.188 123.21L117.717 105.128L168.498 33.0429Z" fill="#D4F6CC"/>
<path opacity="0.7" d="M168.213 23.1762C168.213 23.3424 160.178 34.8336 144.097 57.6591C128.016 80.4846 118.601 93.8402 115.842 97.726L79.1729 45.6141L109.639 2.29824C110.703 0.766076 112.335 0 114.526 0C115.4 0 116.221 0.166142 116.969 0.489188L167.834 22.6778C168.087 22.7978 168.213 22.9547 168.213 23.1762V23.1762Z" fill="#D4F6CC"/>
</svg>
